<svg width="50" height="72" viewBox="0 0 50 72" fill="none" xmlns="http://www.w3.org/2000/svg">
<path fill-rule="evenodd" clip-rule="evenodd" d="M5.40998 0.508346C3.50078 1.2006 1.68618 2.83663 0.802436 4.66262C0.0140576 6.29105 0 6.70823 0 28.352V50.384L0.962392 52.3156C2.25647 54.9125 4.17897 56.2032 7.54107 56.7324L10.1668 57.1462L10.3629 59.3077C10.7983 64.1086 14.217 68.7808 18.9009 70.9757C20.7953 71.8632 21.5693 72 24.7042 72C28.0157 72 28.5332 71.8959 30.8231 70.7686C35.368 68.5311 38.6051 63.9905 39.0348 59.2495C39.2202 57.2032 39.3216 56.9923 40.118 56.9923C43.751 56.9923 47.3243 54.8593 48.6758 51.8844C49.3289 50.4459 49.3764 48.9049 49.384 28.7308C49.3901 12.7098 49.2715 6.71355 48.925 5.55435C48.3221 3.53572 45.8578 1.07142 43.8391 0.468452C41.6685 -0.180108 7.20939 -0.144393 5.40998 0.508346ZM43.7221 5.54067L44.6431 6.52092L44.8331 27.8219C44.9744 43.6518 44.9083 49.3954 44.5766 50.1838C44.0029 51.5478 42.2704 52.433 40.1754 52.433C38.5625 52.433 38.4808 52.3726 37.0219 50.0941C35.2027 47.2525 31.9056 44.6936 28.9599 43.8372C25.787 42.9151 21.2437 43.2495 18.4617 44.6108C15.899 45.8646 13.0278 48.6161 11.9682 50.8338L11.2083 52.4243L9.02968 52.4288C7.15619 52.4323 6.67709 52.2776 5.61021 51.3247L4.36932 50.2161L4.26484 29.0096C4.18885 13.546 4.28004 7.51408 4.60223 6.73634C5.52739 4.50343 4.99927 4.56042 24.7144 4.56042H42.8008L43.7221 5.54067ZM11.8629 11.9909C11.3219 12.3697 11.0183 12.9765 11.0183 13.679C11.0183 15.8884 11.4393 15.9587 24.6962 15.9587C37.9531 15.9587 38.3741 15.8884 38.3741 13.679C38.3741 11.4697 37.9531 11.3994 24.6962 11.3994C14.4602 11.3994 12.5837 11.486 11.8629 11.9909ZM11.4115 23.5324C10.8253 24.6282 10.934 25.643 11.7132 26.3482C12.3295 26.9063 13.7995 26.977 24.7623 26.977C36.2483 26.977 37.1605 26.9279 37.7453 26.282C38.5378 25.4067 38.5515 24.1688 37.7772 23.3945C37.2582 22.8759 35.5199 22.7976 24.4925 22.7976C12.3375 22.7976 11.7884 22.8284 11.4115 23.5324ZM11.6186 34.5423C10.6923 35.5659 10.97 37.2878 12.1581 37.8858C13.5149 38.569 35.8775 38.569 37.2342 37.8858C38.4223 37.2878 38.7001 35.5659 37.7738 34.5423C37.1522 33.8554 36.4424 33.8159 24.6962 33.8159C12.9499 33.8159 12.2402 33.8554 11.6186 34.5423ZM29.1278 48.5686C36.7054 52.4342 36.6997 62.9065 29.1179 66.7511C23.7258 69.4859 16.7254 66.4582 14.9989 60.6443C14.2979 58.2834 14.2945 57.2085 14.9815 54.9262C15.9864 51.5877 18.1897 49.2696 21.5495 48.0166C23.4865 47.2939 27.1529 47.561 29.1278 48.5686ZM25.3949 55.3354L23.2524 57.4779L22.1111 56.6652C20.7125 55.6694 19.6939 55.6325 18.866 56.5474C17.8002 57.7252 18.119 58.81 20.1187 60.81C22.8846 63.5756 23.4196 63.4673 27.477 59.321C30.8763 55.8472 31.3087 54.9334 30.0803 53.8217C28.822 52.6826 27.678 53.0523 25.3949 55.3354Z" fill="#0047AB"/>
</svg>
