<svg width="72" height="66" viewBox="0 0 72 66" fill="none" xmlns="http://www.w3.org/2000/svg">
<path fill-rule="evenodd" clip-rule="evenodd" d="M20.2624 0.70465C6.63566 4.39412 -1.96116 17.6618 0.384831 31.3828C2.81119 45.5765 16.8089 55.5735 31.1743 53.3722C35.2672 52.745 40.5923 50.6195 43.4416 48.4751L45.0458 47.268L52.9796 55.9278C57.3429 60.6912 61.373 64.9057 61.935 65.294C62.497 65.6823 63.8241 66 64.8847 66C67.9246 66 72 61.9248 72 58.8843C72 56.3486 70.452 54.9428 61.0829 48.9712C55.8959 45.6645 51.3342 42.6759 50.9458 42.3292C50.3539 41.8006 50.4549 41.2629 51.5743 38.9834C59.2325 23.3873 50.8108 4.99184 34.0623 0.731081C30.2723 -0.233091 23.7716 -0.245291 20.2624 0.70465ZM36.5319 7.42438C40.8854 9.53874 44.8011 13.4219 46.872 17.6775C48.2042 20.4161 48.5375 21.8077 48.7173 25.3889C49.1943 34.8812 44.7063 42.2957 36.0322 46.347C32.8738 47.822 32.167 47.9532 27.4395 47.9415C21.3082 47.9262 17.7722 46.775 13.6572 43.455C2.31355 34.3033 3.07546 17.2211 15.1944 8.9944C19.1548 6.3057 22.1716 5.51992 27.9845 5.66224C32.6374 5.7766 33.509 5.95601 36.5319 7.42438ZM23.7222 13.0966C22.8109 13.3258 21.2417 14.2269 20.2351 15.0986C19.229 15.9708 17.7722 16.815 16.9984 16.9756C16.2242 17.1362 15.2433 17.4488 14.8183 17.6699C12.9766 18.63 13.923 27.8031 16.3766 32.777C18.0833 36.2362 24.1564 42.3618 26.4401 42.927C28.24 43.3727 32.8182 40.2342 35.7788 36.5244C39.1937 32.2453 40.206 29.1521 40.2667 22.8115L40.3183 17.488L38.4132 17.1779C36.4958 16.8653 35.7277 16.4333 33.3637 14.3367C31.9079 13.0457 26.6225 12.3657 23.7222 13.0966ZM26.947 40.9879C26.6158 41.3148 23.5403 38.9844 21.183 36.6199C20.1527 35.5872 18.5938 33.2552 17.7191 31.4382C16.3143 28.5218 16.1263 27.6029 16.117 23.6013L16.1062 19.0687L17.6006 18.6697C18.4223 18.4501 19.975 17.5723 21.0506 16.7195C22.1262 15.8671 23.888 14.9883 24.9652 14.7672L26.9243 14.3657L27.0619 27.5526C27.1376 34.8049 27.0856 40.8512 26.947 40.9879Z" fill="#0047AB"/>
</svg>
