<svg width="72" height="54" viewBox="0 0 72 54" fill="none" xmlns="http://www.w3.org/2000/svg">
<path fill-rule="evenodd" clip-rule="evenodd" d="M6.62215 0.22818C5.79643 0.596769 5.3132 1.28639 4.08718 3.84538C1.83194 8.55297 0.697989 12.7436 0.123329 18.4948C-0.317793 22.9092 0.486314 30.6966 1.55301 32.3419C2.0308 33.0787 2.99679 33.6258 3.82011 33.6258C4.64087 33.6258 5.70468 33.034 6.18279 32.3117C6.69933 31.531 6.70845 30.8697 6.23563 28.4406C5.28197 23.5404 5.42672 18.0993 6.64281 13.1437C7.24853 10.6748 8.03486 8.52415 9.27128 5.9546C10.5122 3.37576 10.6601 2.84497 10.3814 1.97313C9.87685 0.394542 8.09859 -0.43086 6.62215 0.22818ZM33.9661 0.247715C32.1523 0.736231 30.0815 2.14494 29.2868 3.43068C29.0601 3.7975 28.4747 4.23254 27.4112 4.82465C24.8924 6.22712 22.5123 8.80468 21.4136 11.3201C20.1964 14.1066 19.7665 16.0953 19.4302 20.4962C18.9748 26.4536 18.5616 29.2722 17.9559 30.5522C17.793 30.8963 17.4476 31.2129 16.9675 31.458C14.9085 32.5089 14.073 33.5925 13.9453 35.3777C13.8042 37.349 14.6115 38.8194 16.3427 39.7437L17.0297 40.1106H36.0036H54.9774L55.8299 39.6384C57.4394 38.7467 58.1993 37.2984 58.0622 35.3834C57.9348 33.6007 57.1238 32.5066 55.2163 31.5437C54.5683 31.2166 54.229 30.9279 54.0515 30.5527C53.4406 29.2618 53.0248 26.407 52.5749 20.4162C52.2867 16.5775 51.856 14.3726 50.9769 12.2368C49.6343 8.97472 47.4033 6.37811 44.6139 4.83138C43.5167 4.22294 42.9488 3.79718 42.6396 3.3511C40.8458 0.76265 37.0701 -0.588255 33.9661 0.247715ZM63.1434 0.22818C62.085 0.700685 61.3312 2.05463 61.5315 3.12293C61.5872 3.41931 62.129 4.69368 62.7359 5.9546C66.2569 13.2723 67.2451 20.8941 65.7003 28.8174C65.258 31.0851 65.2896 31.584 65.9323 32.4866C66.3422 33.0622 67.4577 33.6258 68.1871 33.6258C69.0104 33.6258 69.9764 33.0787 70.4542 32.3419C71.1665 31.2431 71.8041 27.3438 71.9722 23.0581C72.1633 18.1846 71.3654 12.9405 69.6821 8.00714C68.964 5.90272 66.8754 1.51792 66.2985 0.903554C65.4907 0.0430858 64.1843 -0.236479 63.1434 0.22818ZM14.7503 3.67806C13.6979 3.9312 13.1488 4.55454 12.1595 6.61972C10.5224 10.0368 9.49224 13.6479 9.09131 17.374C8.68846 21.1175 9.3166 27.375 10.2307 28.725C11.2327 30.2048 13.4582 30.3436 14.5912 28.997C15.3331 28.1152 15.4023 27.4919 14.9961 25.3505C14.7016 23.7975 14.6381 22.9131 14.6422 20.4162C14.6466 17.7398 14.6988 17.13 15.0763 15.3447C15.5676 13.022 16.2468 11.0492 17.4361 8.48957C18.3485 6.52622 18.4 5.93635 17.7511 4.88614C17.2012 3.99653 15.7895 3.42827 14.7503 3.67806ZM55.9804 3.68366C54.7675 4.04777 54.0342 4.8594 53.8441 6.04763C53.7533 6.61572 53.848 6.93355 54.5711 8.48957C55.7604 11.0492 56.4396 13.022 56.9309 15.3447C57.3084 17.13 57.3606 17.7398 57.3649 20.4162C57.3691 22.9131 57.3055 23.7975 57.0111 25.3505C56.6049 27.4919 56.674 28.1152 57.416 28.997C58.549 30.3436 60.7745 30.2048 61.7765 28.725C62.6906 27.375 63.3187 21.1175 62.9159 17.374C62.5106 13.6079 61.3712 9.67395 59.7395 6.40693C58.9916 4.90936 58.7009 4.48681 58.1798 4.13919C57.4599 3.65916 56.6327 3.48784 55.9804 3.68366ZM37.1134 5.83979C37.7191 6.15314 38.2981 6.86374 38.6596 7.73798C38.935 8.40391 39.0372 8.48653 40.0819 8.89018C44.3175 10.5264 46.4254 13.8014 46.884 19.4587C46.9695 20.5137 47.1154 22.3496 47.2079 23.5385C47.6132 28.7419 48.1539 31.3022 49.296 33.4257L49.9205 34.5865H36.0036H22.0867L22.7112 33.4257C23.9591 31.1056 24.3794 28.8985 24.945 21.6971C25.4138 15.7278 26.1077 13.5065 28.2046 11.2649C29.2159 10.1839 30.167 9.57932 31.9485 8.8849C33.015 8.46923 33.1159 8.38821 33.3593 7.75111C34.05 5.94243 35.6936 5.10566 37.1134 5.83979ZM27.5174 45.694C27.5174 47.14 28.4366 49.2843 29.6663 50.7068C31.0784 52.3403 33.6832 53.4803 36.0036 53.4803C38.324 53.4803 40.9288 52.3403 42.3409 50.7068C43.5705 49.2843 44.4898 47.14 44.4898 45.694V44.9866L41.7342 45.0303L38.9786 45.0742L38.8732 45.5906C38.7318 46.2823 38.3727 46.802 37.6605 47.3451C37.1491 47.7353 36.9255 47.7962 36.0036 47.7962C35.0816 47.7962 34.8581 47.7353 34.3467 47.3451C33.6345 46.802 33.2754 46.2823 33.134 45.5906L33.0286 45.0742L30.273 45.0303L27.5174 44.9866V45.694Z" fill="#0047AB"/>
</svg>
