<svg width="72" height="68" viewBox="0 0 72 68" fill="none" xmlns="http://www.w3.org/2000/svg">
<mask id="path-1-inside-1_11_1242" fill="white">
<path fill-rule="evenodd" clip-rule="evenodd" d="M43.5069 0.175667C43.4036 0.278697 43.3191 0.65507 43.3191 1.01174C43.3191 1.47284 43.8551 2.0899 45.174 3.14667L47.0288 4.63273L33.9034 4.77349C20.2225 4.92015 20.2566 4.91705 20.2399 6.05433C20.2264 6.98274 20.832 7.02552 33.945 7.02552C41.1135 7.02552 46.9756 7.12039 46.9717 7.23665C46.9677 7.35291 46.1443 8.06597 45.1419 8.82124C43.8115 9.82368 43.3191 10.3723 43.3191 10.8523C43.3191 11.6917 44.1234 12.1517 44.8747 11.7416C45.6289 11.3303 51.2902 6.98133 51.5489 6.61481C52.0649 5.88374 51.5408 5.25908 48.2719 2.71062C45.0757 0.218737 44.0235 -0.341176 43.5069 0.175667ZM23.7545 15.8226C21.2016 17.8021 20.3765 18.5979 20.3765 19.0801C20.3765 19.9897 26.8224 25.0843 27.8364 24.9762C28.3642 24.9199 28.5618 24.7147 28.6265 24.1554C28.6995 23.5245 28.4033 23.1679 26.6974 21.833L24.6824 20.2563H37.6789C46.0993 20.2563 50.8671 20.1538 51.2198 19.9649C51.8335 19.6364 51.9337 18.8493 51.4265 18.342C51.1734 18.0889 47.817 18.0042 38.055 18.0042C30.8865 18.0042 25.0264 17.9091 25.0329 17.7931C25.0393 17.6771 25.8703 16.9717 26.8795 16.2254C28.4422 15.0704 28.7017 14.7571 28.6274 14.1141C28.454 12.6142 27.4285 12.9737 23.7545 15.8226ZM14.0426 28.052C9.85439 28.756 6.38541 30.3868 4.05483 32.7475C2.11836 34.7093 0.958556 36.8788 0.375278 39.6311C-0.129179 42.0115 -0.126082 43.2707 0.39076 45.7324C1.05483 48.8954 2.41337 51.2761 5.42913 54.561C8.70782 58.1327 9.14078 59.1481 8.85139 62.587C8.74554 63.8453 8.63519 65.3181 8.60592 65.86L8.55328 66.8453L17.2461 66.9199C27.7418 67.0097 27.7601 67.0032 25.6778 63.9799C24.8904 62.8367 24.6157 62.1225 24.5202 60.9731L24.3952 59.4657L26.4229 59.3204C28.655 59.1608 29.5082 58.7126 30.581 57.1362C31.0863 56.3939 31.2144 55.814 31.2144 54.2696C31.2144 52.3394 31.2169 52.3332 32.0677 52.1631C33.0079 51.9751 34.0295 50.8778 34.0295 50.0558C34.0295 49.7661 33.2812 48.1047 32.3669 46.3639L30.7046 43.1989L30.8516 41.082C31.2839 34.8562 27.4611 29.7348 21.2967 28.2814C19.6685 27.8974 15.7069 27.7722 14.0426 28.052ZM50.5743 28.2763C44.426 29.8364 40.7203 34.9215 41.1499 41.2089L41.3024 43.4413L39.7772 46.4824C38.9372 48.1573 38.252 49.906 38.252 50.3753C38.252 51.2944 38.9741 52.1057 40.0176 52.3596C40.5705 52.4939 40.6637 52.7439 40.8047 54.4709C41.0972 58.0545 42.1669 59.1611 45.5568 59.3854L47.6825 59.5262L47.6129 60.8757C47.5403 62.2858 47.0662 63.4349 45.9518 64.9012C45.1723 65.9268 45.1376 66.2308 45.7319 66.8253C46.1139 67.207 47.2979 67.2676 54.4048 67.2676C64.1843 67.2676 63.8912 67.3478 63.3682 64.8162C62.428 60.2643 63.0194 58.3754 66.5923 54.5185C69.592 51.2806 70.9398 48.9199 71.6092 45.7324C72.1261 43.2707 72.1292 42.0115 71.6247 39.6311C71.0414 36.8788 69.8816 34.7093 67.9452 32.7475C64.9404 29.7038 60.9135 28.1705 55.4238 27.9796C53.1839 27.9019 51.69 27.9931 50.5743 28.2763ZM20.5738 30.4253C23.83 31.1164 26.3137 33.0354 27.7578 35.9755C28.4757 37.4373 28.5401 37.836 28.5401 40.8061V44.0434L30.018 46.7951C30.831 48.3085 31.4959 49.6544 31.4959 49.7861C31.4959 49.9176 31.1212 50.1003 30.6635 50.1918C29.5105 50.4226 28.9624 51.6013 28.9624 53.851C28.9624 56.5431 28.568 56.911 25.459 57.1173C23.4747 57.2491 22.9241 57.3853 22.6035 57.8239C22.0213 58.6197 22.0973 61.6259 22.7422 63.3234L23.2782 64.734L17.1825 64.7337L11.0868 64.7335L11.0818 61.7076C11.0756 57.8768 10.6781 57.0016 7.24315 53.2526C4.31381 50.055 2.99693 47.6875 2.49614 44.7193C1.84361 40.8506 3.05042 36.8518 5.65744 34.2448C8.79818 31.104 15.5836 29.3666 20.5738 30.4253ZM60.0509 30.8273C65.4429 32.2881 68.6914 35.6813 69.5239 40.7233C70.2425 45.0748 68.8178 48.8197 64.7568 53.2526C61.2814 57.0458 60.916 57.8633 60.9143 61.8486L60.9132 65.0155H54.8983H48.8836L49.0829 64.3821C50.3019 60.51 50.3677 59.1937 49.3988 58.0674C48.78 57.3479 48.5272 57.2719 46.4399 57.177C43.47 57.0422 43.0376 56.596 43.0376 53.6653C43.0376 52.0148 42.9346 51.5706 42.4256 51.0287C42.089 50.6706 41.6034 50.3773 41.3463 50.3773C41.0896 50.3773 40.8013 50.299 40.7056 50.2036C40.6102 50.1082 41.1867 48.7462 41.9868 47.1774L43.4413 44.3249L43.4506 40.9469C43.459 37.8329 43.521 37.4444 44.2422 35.9755C45.639 33.1317 47.7236 31.4475 50.9904 30.5241C52.8236 30.0059 57.61 30.1661 60.0509 30.8273Z"/>
</mask>
<path fill-rule="evenodd" clip-rule="evenodd" d="M43.5069 0.175667C43.4036 0.278697 43.3191 0.65507 43.3191 1.01174C43.3191 1.47284 43.8551 2.0899 45.174 3.14667L47.0288 4.63273L33.9034 4.77349C20.2225 4.92015 20.2566 4.91705 20.2399 6.05433C20.2264 6.98274 20.832 7.02552 33.945 7.02552C41.1135 7.02552 46.9756 7.12039 46.9717 7.23665C46.9677 7.35291 46.1443 8.06597 45.1419 8.82124C43.8115 9.82368 43.3191 10.3723 43.3191 10.8523C43.3191 11.6917 44.1234 12.1517 44.8747 11.7416C45.6289 11.3303 51.2902 6.98133 51.5489 6.61481C52.0649 5.88374 51.5408 5.25908 48.2719 2.71062C45.0757 0.218737 44.0235 -0.341176 43.5069 0.175667ZM23.7545 15.8226C21.2016 17.8021 20.3765 18.5979 20.3765 19.0801C20.3765 19.9897 26.8224 25.0843 27.8364 24.9762C28.3642 24.9199 28.5618 24.7147 28.6265 24.1554C28.6995 23.5245 28.4033 23.1679 26.6974 21.833L24.6824 20.2563H37.6789C46.0993 20.2563 50.8671 20.1538 51.2198 19.9649C51.8335 19.6364 51.9337 18.8493 51.4265 18.342C51.1734 18.0889 47.817 18.0042 38.055 18.0042C30.8865 18.0042 25.0264 17.9091 25.0329 17.7931C25.0393 17.6771 25.8703 16.9717 26.8795 16.2254C28.4422 15.0704 28.7017 14.7571 28.6274 14.1141C28.454 12.6142 27.4285 12.9737 23.7545 15.8226ZM14.0426 28.052C9.85439 28.756 6.38541 30.3868 4.05483 32.7475C2.11836 34.7093 0.958556 36.8788 0.375278 39.6311C-0.129179 42.0115 -0.126082 43.2707 0.39076 45.7324C1.05483 48.8954 2.41337 51.2761 5.42913 54.561C8.70782 58.1327 9.14078 59.1481 8.85139 62.587C8.74554 63.8453 8.63519 65.3181 8.60592 65.86L8.55328 66.8453L17.2461 66.9199C27.7418 67.0097 27.7601 67.0032 25.6778 63.9799C24.8904 62.8367 24.6157 62.1225 24.5202 60.9731L24.3952 59.4657L26.4229 59.3204C28.655 59.1608 29.5082 58.7126 30.581 57.1362C31.0863 56.3939 31.2144 55.814 31.2144 54.2696C31.2144 52.3394 31.2169 52.3332 32.0677 52.1631C33.0079 51.9751 34.0295 50.8778 34.0295 50.0558C34.0295 49.7661 33.2812 48.1047 32.3669 46.3639L30.7046 43.1989L30.8516 41.082C31.2839 34.8562 27.4611 29.7348 21.2967 28.2814C19.6685 27.8974 15.7069 27.7722 14.0426 28.052ZM50.5743 28.2763C44.426 29.8364 40.7203 34.9215 41.1499 41.2089L41.3024 43.4413L39.7772 46.4824C38.9372 48.1573 38.252 49.906 38.252 50.3753C38.252 51.2944 38.9741 52.1057 40.0176 52.3596C40.5705 52.4939 40.6637 52.7439 40.8047 54.4709C41.0972 58.0545 42.1669 59.1611 45.5568 59.3854L47.6825 59.5262L47.6129 60.8757C47.5403 62.2858 47.0662 63.4349 45.9518 64.9012C45.1723 65.9268 45.1376 66.2308 45.7319 66.8253C46.1139 67.207 47.2979 67.2676 54.4048 67.2676C64.1843 67.2676 63.8912 67.3478 63.3682 64.8162C62.428 60.2643 63.0194 58.3754 66.5923 54.5185C69.592 51.2806 70.9398 48.9199 71.6092 45.7324C72.1261 43.2707 72.1292 42.0115 71.6247 39.6311C71.0414 36.8788 69.8816 34.7093 67.9452 32.7475C64.9404 29.7038 60.9135 28.1705 55.4238 27.9796C53.1839 27.9019 51.69 27.9931 50.5743 28.2763ZM20.5738 30.4253C23.83 31.1164 26.3137 33.0354 27.7578 35.9755C28.4757 37.4373 28.5401 37.836 28.5401 40.8061V44.0434L30.018 46.7951C30.831 48.3085 31.4959 49.6544 31.4959 49.7861C31.4959 49.9176 31.1212 50.1003 30.6635 50.1918C29.5105 50.4226 28.9624 51.6013 28.9624 53.851C28.9624 56.5431 28.568 56.911 25.459 57.1173C23.4747 57.2491 22.9241 57.3853 22.6035 57.8239C22.0213 58.6197 22.0973 61.6259 22.7422 63.3234L23.2782 64.734L17.1825 64.7337L11.0868 64.7335L11.0818 61.7076C11.0756 57.8768 10.6781 57.0016 7.24315 53.2526C4.31381 50.055 2.99693 47.6875 2.49614 44.7193C1.84361 40.8506 3.05042 36.8518 5.65744 34.2448C8.79818 31.104 15.5836 29.3666 20.5738 30.4253ZM60.0509 30.8273C65.4429 32.2881 68.6914 35.6813 69.5239 40.7233C70.2425 45.0748 68.8178 48.8197 64.7568 53.2526C61.2814 57.0458 60.916 57.8633 60.9143 61.8486L60.9132 65.0155H54.8983H48.8836L49.0829 64.3821C50.3019 60.51 50.3677 59.1937 49.3988 58.0674C48.78 57.3479 48.5272 57.2719 46.4399 57.177C43.47 57.0422 43.0376 56.596 43.0376 53.6653C43.0376 52.0148 42.9346 51.5706 42.4256 51.0287C42.089 50.6706 41.6034 50.3773 41.3463 50.3773C41.0896 50.3773 40.8013 50.299 40.7056 50.2036C40.6102 50.1082 41.1867 48.7462 41.9868 47.1774L43.4413 44.3249L43.4506 40.9469C43.459 37.8329 43.521 37.4444 44.2422 35.9755C45.639 33.1317 47.7236 31.4475 50.9904 30.5241C52.8236 30.0059 57.61 30.1661 60.0509 30.8273Z" fill="#0047AB" stroke="#0047AB" stroke-width="6" mask="url(#path-1-inside-1_11_1242)"/>
</svg>
