<svg width="65" height="72" viewBox="0 0 65 72" fill="none" xmlns="http://www.w3.org/2000/svg">
<path fill-rule="evenodd" clip-rule="evenodd" d="M28.6542 0.169747C26.6661 0.392467 25.9924 0.512245 24.1219 0.976045C18.6168 2.34099 13.9993 4.96368 9.66007 9.19016C4.19814 14.5102 1.111 20.8471 0.266778 28.4717C0.0150352 30.7454 -0.0755602 35.8457 0.0689114 39.6158C0.149245 41.7125 0.278804 42.3473 0.87056 43.5442C2.61224 47.0665 6.64156 48.8073 10.3995 47.6609C12.9595 46.88 14.9901 44.7862 15.7576 42.1359L15.9767 41.3796L16.005 36.4489C16.0241 33.1185 16.0043 31.299 15.9438 30.8426C15.5038 27.5206 12.9248 24.8254 9.52739 24.1369C8.6058 23.9502 6.98454 24.0181 5.90261 24.2888C5.26748 24.4477 5.12092 24.4631 5.12092 24.371C5.12092 24.1199 6.01028 21.5927 6.43704 20.6309C7.884 17.3697 9.67803 14.7947 12.3694 12.1162C13.9207 10.5723 15.0385 9.65516 16.7091 8.55543C23.2716 4.23579 31.3561 2.90356 39.1142 4.86339C47.2108 6.90868 54.1911 12.8074 57.6597 20.5352C58.2868 21.9323 59.1618 24.5032 59.0102 24.5032C58.9801 24.5032 58.4508 24.3912 57.8339 24.2542C56.8158 24.0283 56.6233 24.0092 55.7501 24.0481C53.6766 24.1403 51.9867 24.8729 50.5394 26.3071C49.3449 27.4907 48.7006 28.6438 48.2773 30.3558C48.1684 30.796 48.1434 31.6052 48.1162 35.567C48.0825 40.4717 48.1107 41.0743 48.4269 42.2214C48.8718 43.8345 49.9174 45.3585 51.3005 46.4098C51.9758 46.9232 53.2448 47.5376 54.1065 47.7686C54.682 47.9228 54.9905 47.9514 56.0907 47.9525C56.819 47.9532 57.3935 47.9859 57.3936 48.0267C57.3937 48.152 56.5957 49.5916 55.9367 50.6548C53.8825 53.9686 51.3473 56.7174 48.3972 58.8294C45.2397 61.09 41.2282 62.7766 37.1559 63.5558C35.6354 63.8467 35.7307 63.8694 35.3057 63.1142C34.6942 62.0275 33.8811 61.2614 32.7405 60.6974C31.7343 60.1999 31.1677 60.0672 30.0547 60.0687C28.3031 60.0708 26.7852 60.739 25.6338 62.0147C23.4289 64.4576 23.5851 68.1658 25.9877 70.4132C26.6693 71.0508 27.287 71.4182 28.215 71.7379C28.9168 71.9796 29.0488 71.9989 30.0146 72C31.1933 72.0014 31.7349 71.8873 32.6694 71.4408C33.9132 70.8465 34.843 69.9097 35.491 68.5983L35.8672 67.8366L36.5086 67.7337C38.1452 67.4709 40.1275 67.0334 41.3439 66.6666C50.214 63.9915 57.5769 57.4949 61.3535 49.0112C61.9624 47.6434 62.6389 45.7605 62.9288 44.6266C62.9796 44.4281 63.1795 43.8644 63.373 43.3739C64.0971 41.5386 64.0727 41.7728 64.1093 36.3287C64.1571 29.2403 63.9816 27.2404 62.9968 23.6479C61.6159 18.6109 59.0785 13.9837 55.7284 10.3927C51.3308 5.67915 45.9025 2.42517 39.956 0.938043C37.3985 0.298424 35.3239 0.0406684 32.4599 0.00675528C30.646 -0.0148112 30.0895 0.00908008 28.6542 0.169747ZM57.3758 28.1988C58.5371 28.5983 59.4849 29.5586 59.8986 30.7549C60.0784 31.2747 60.0794 31.3057 60.0794 36.0481C60.0794 40.8039 60.0789 40.8198 59.8987 41.2929C59.2605 42.9685 57.8086 43.9852 56.0537 43.9852C54.6361 43.9852 53.4166 43.2608 52.633 41.9534C52.1191 41.096 52.1022 40.9049 52.1022 35.9489C52.1022 31.1468 52.1103 31.0423 52.5482 30.1704C52.8374 29.5946 53.192 29.1768 53.7242 28.7851C54.7843 28.0046 56.1666 27.7827 57.3758 28.1988ZM9.22714 28.1899C10.5297 28.5923 11.54 29.6576 11.8993 31.0077C12.0746 31.6661 12.0689 40.3801 11.8929 41.0561C11.5542 42.3562 10.4585 43.4692 9.13502 43.8575C8.60139 44.014 7.55056 44.0218 6.99296 43.8733C5.72358 43.5353 4.64702 42.4888 4.22748 41.1849C4.06288 40.6734 4.05791 40.522 4.05743 36.008C4.05703 31.4884 4.06176 31.3432 4.227 30.8311C4.63035 29.5809 5.58745 28.6094 6.8436 28.175C7.41716 27.9767 8.55978 27.9838 9.22714 28.1899Z" fill="#0047AB"/>
</svg>
