<svg width="22" height="25" viewBox="0 0 22 25" fill="none" xmlns="http://www.w3.org/2000/svg">
<path opacity="0.3" d="M7.53809 8.5H5.00024C3.60011 8.5 2.89953 8.5 2.36475 8.77248C1.89434 9.01217 1.51217 9.39434 1.27248 9.86475C1 10.3995 1 11.1001 1 12.5002V19.5002C1 20.9004 1 21.6001 1.27248 22.1349C1.51217 22.6053 1.89434 22.9881 2.36475 23.2278C2.899 23.5 3.59878 23.5 4.99617 23.5H17.0039C18.4013 23.5 19.1 23.5 19.6342 23.2278C20.1046 22.9881 20.4881 22.6053 20.7278 22.1349C21 21.6006 21 20.9019 21 19.5045V12.4961C21 11.0987 21 10.399 20.7278 9.86475C20.4881 9.39434 20.1047 9.01217 19.6342 8.77248C19.0995 8.5 18.4004 8.5 17.0002 8.5H14.4612M7.53809 8.5H14.4612M7.53809 8.5C7.37877 8.5 7.25 8.37085 7.25 8.21154V4.75C7.25 2.67893 8.92893 1 11 1C13.0711 1 14.75 2.67893 14.75 4.75V8.21154C14.75 8.37085 14.6205 8.5 14.4612 8.5" stroke="#13131A" stroke-width="2" stroke-linecap="round" stroke-linejoin="round"/>
</svg>
