<svg width="22" height="18" viewBox="0 0 22 18" fill="none" xmlns="http://www.w3.org/2000/svg">
<path opacity="0.3" d="M2.66667 2.66667L8.89737 7.23585L8.89964 7.23773C9.65317 7.79032 10.0302 8.06677 10.4431 8.17357C10.808 8.26797 11.1917 8.26797 11.5566 8.17357C11.9699 8.06668 12.348 7.78941 13.1029 7.23585L19.3336 2.66667M1 13.0002V4.55577C1 3.31121 1 2.68847 1.24221 2.21311C1.45526 1.79497 1.79497 1.45526 2.21311 1.24221C2.68847 1 3.31121 1 4.55577 1H17.4447C18.6892 1 19.3106 1 19.786 1.24221C20.2041 1.45526 20.545 1.79497 20.758 2.21311C21 2.688 21 3.30999 21 4.55212V13.004C21 14.2461 21 14.8672 20.758 15.3421C20.545 15.7602 20.2041 16.1005 19.786 16.3136C19.3111 16.5556 18.69 16.5556 17.4479 16.5556H4.55212C3.30999 16.5556 2.688 16.5556 2.21311 16.3136C1.79497 16.1005 1.45526 15.7602 1.24221 15.3421C1 14.8667 1 14.2448 1 13.0002Z" stroke="#13131A" stroke-width="2" stroke-linecap="round" stroke-linejoin="round"/>
</svg>
